# xmcd
#
# Track frame offsets:
# 150
# 18973
# 35336
# 55859
# 83793
#
# Disc length: 1427 seconds
#
#
# Revision: 0
# Processed by: cddbd v1.5.1PL0 Copyright (c) Steve Scherf et al.
# Submitted via: FreeRIP 2.80 
#
DISCID=30059105
DTITLE=Taken - Between Two Unseens
DYEAR=1900
DGENRE=
TTITLE0=Arrested Impulse
TTITLE1=The Duke
TTITLE2=Treaded Paths
TTITLE3=Eternity Was on Our Lips
TTITLE4=Swirling Memories
EXTD=
EXTT0=
EXTT1=
EXTT2=
EXTT3=
EXTT4=
PLAYORDER=
